<?xml version="1.0" encoding="utf-8"?>
<!-- Generator: Adobe Illustrator 27.5.0, SVG Export Plug-In . SVG Version: 6.00 Build 0)  -->
<svg version="1.1" id="Capa_1" xmlns="http://www.w3.org/2000/svg" xmlns:xlink="http://www.w3.org/1999/xlink" x="0px" y="0px"
	 viewBox="0 0 2122 2122" style="enable-background:new 0 0 2122 2122;" xml:space="preserve">
<path style="fill:#EBEDEE;" d="M1834.237,888.505L405.385,63.557c-3.69-2.131-7.294-3.778-10.776-4.964l-1.3-0.423
	c-3.235-1.003-6.357-1.602-9.337-1.814l-1.185-0.064c-0.588-0.022-1.171-0.028-1.747-0.02c-0.577,0.009-1.147,0.033-1.711,0.073
	c-0.752,0.052-1.493,0.132-2.222,0.237c-1.823,0.264-3.571,0.695-5.238,1.287l-0.497,0.183c-1.32,0.499-2.586,1.101-3.794,1.803
	l-115.072,66.872l0.016-0.008c-8.045,4.668-13.516,13.775-15.063,26.564l-0.006,0.051c-0.055,0.462-0.106,0.929-0.152,1.401
	l-0.001,0.01c-0.046,0.479-0.086,0.963-0.122,1.452l-0.003,0.048c-0.034,0.48-0.064,0.965-0.087,1.454l-0.002,0.044
	c-0.022,0.469-0.04,0.943-0.052,1.422l-0.004,0.167c-0.011,0.467-0.018,0.939-0.02,1.415l-0.001,0.057l-0.133,47.274l-2.752,970.677
	l1535.109,886.295l115.072-66.872l2.752-970.677l0.135-47.275C1887.288,946.489,1863.599,905.457,1834.237,888.505z"/>
<path style="fill:#FFF051;" d="M539.994,812.541c3.202-16.332,8.513-30.569,15.622-42.54c24.315-0.44,51.905,7.31,81.133,24.184
	c16.887,9.75,33.176,21.914,48.59,35.892l76.714-44.582l27.092-54.026h0c-23.741-22.706-49.094-42.262-75.466-57.488
	c-67.31-38.861-128.276-42.459-172.304-16.873l-76.715,44.582l0.178-0.102c-38.758,22.432-64.43,67.439-69.808,130.889
	l68.251,24.647L539.994,812.541z"/>
<path style="fill:#DB513A;" d="M936.733,1081.233c0.294-103.533-48.653-222.175-121.487-312.258l-76.714,44.582l-27.092,54.026
	c49.9,64.644,83.008,147.587,82.801,220.255c-0.105,37.292-8.996,67.153-24.404,88.331l0.801,1.252
	c-18.269-3.192-37.894-10.52-58.325-22.316c-62.336-35.99-116.994-104.82-148.211-179.033l-68.321-24.648l-76.715,44.581
	c39.458,114.285,121.388,224.456,216.318,279.264c62.406,36.03,119.365,41.72,162.44,21.997l76.714-44.581l-13.599-21.261
	l36.063-20.958C921.937,1181.071,936.574,1137.291,936.733,1081.233z"/>
<path style="fill:#3E226B;" d="M1834.237,888.505L405.385,63.557c-3.69-2.131-7.294-3.778-10.776-4.964l-1.3-0.423
	c-3.235-1.003-6.357-1.602-9.337-1.814l-1.185-0.064c-0.588-0.022-1.171-0.028-1.747-0.02c-0.577,0.009-1.147,0.033-1.711,0.073
	c-0.752,0.052-1.493,0.132-2.222,0.237l-1.085,0.178c-0.538,0.099-1.069,0.214-1.592,0.342l-1.039,0.277
	c-0.514,0.148-1.021,0.311-1.522,0.489l-0.497,0.183c-0.495,0.187-0.982,0.388-1.462,0.604c-0.799,0.36-1.577,0.759-2.332,1.198
	l-115.072,66.872l0.108-0.061l-0.091,0.053c-8.045,4.668-13.516,13.775-15.063,26.564l-0.006,0.051
	c-0.055,0.462-0.106,0.929-0.152,1.401l-0.001,0.01c-0.046,0.479-0.086,0.963-0.122,1.452l-0.003,0.048
	c-0.034,0.48-0.064,0.965-0.087,1.454l-0.002,0.044c-0.022,0.469-0.04,0.943-0.052,1.422l-0.004,0.167
	c-0.011,0.467-0.018,0.939-0.02,1.415l-0.001,0.057l-0.134,47.274l1535.109,886.296l-2.752,970.677l115.072-66.872l2.752-970.677
	l0.135-47.275C1887.288,946.489,1863.599,905.457,1834.237,888.505z"/>
<path style="fill:#54428F;" d="M1772.121,1047.1c0.095-33.739-23.596-74.771-52.957-91.723L290.314,130.43l-1.032-0.583
	l-0.826-0.452l-0.201-0.109l-1.015-0.529c-0.565-0.289-1.128-0.568-1.688-0.834l-0.617-0.289l-0.053-0.025l-0.397-0.18l-0.295-0.133
	l-0.414-0.182l-0.234-0.103l-0.415-0.176l-0.264-0.112l-0.305-0.125l-0.362-0.148l-0.346-0.137l-0.302-0.119l-0.368-0.139
	l-0.297-0.113l-0.332-0.121l-0.324-0.117l-0.296-0.104l-0.36-0.125l-0.307-0.103l-0.337-0.112l-0.386-0.123l-0.248-0.079
	l-0.415-0.126l-0.234-0.071l-0.357-0.103l-0.289-0.083l-0.344-0.094l-0.295-0.08l-0.355-0.092l-0.27-0.069l-0.38-0.092l-0.252-0.061
	l-0.346-0.079l-0.295-0.066l-0.269-0.057l-0.361-0.075l-0.317-0.062l-0.279-0.054l-0.385-0.069l-0.24-0.042l-0.361-0.059
	l-0.253-0.041l-0.323-0.048l-0.299-0.044l-0.3-0.039l-0.307-0.04l-0.304-0.035l-0.29-0.033l-0.334-0.033l-0.267-0.026l-0.338-0.028
	l-0.254-0.021l-0.336-0.022l-0.26-0.017l-0.331-0.016l-0.258-0.012l-0.298-0.01l-0.298-0.008l-0.279-0.004l-0.301-0.004
	l-0.287,0.001l-0.282,0.002l-0.305,0.006l-0.269,0.007l-0.301,0.011l-0.264,0.011l-0.308,0.017l-0.26,0.016l-0.324,0.024
	l-0.218,0.018l-0.352,0.032l-0.213,0.021l-0.312,0.035l-0.246,0.028l-0.314,0.04l-0.228,0.031l-0.314,0.047l-0.234,0.036
	l-0.313,0.053l-0.22,0.039l-0.325,0.061l-0.207,0.04l-0.299,0.062l-0.248,0.054l-0.293,0.067l-0.21,0.049l-0.312,0.077l-0.23,0.059
	l-0.263,0.071l-0.249,0.069l-0.283,0.082l-0.224,0.067l-0.277,0.087l-0.232,0.075l-0.285,0.096l-0.206,0.07l-0.297,0.106
	l-0.205,0.075l-0.276,0.105l-0.219,0.085l-0.278,0.113l-0.204,0.085l-0.276,0.118l-0.202,0.088l-0.289,0.131l-0.186,0.086
	l-0.277,0.132l-0.2,0.098l-0.256,0.129l-0.219,0.113l-0.248,0.131l-0.201,0.109l-0.259,0.144l-0.201,0.114l-0.091,0.053
	c-8.045,4.668-13.516,13.775-15.063,26.564l-0.006,0.051c-0.055,0.462-0.106,0.929-0.152,1.401l-0.001,0.01
	c-0.046,0.479-0.086,0.963-0.122,1.452l-0.003,0.048c-0.034,0.48-0.064,0.965-0.087,1.454l-0.002,0.044
	c-0.022,0.469-0.04,0.943-0.052,1.422l-0.004,0.167c-0.011,0.467-0.018,0.939-0.02,1.415l-0.001,0.057l-0.134,47.274
	l1535.109,886.296L1772.121,1047.1z"/>
<path style="fill:#FFFFFF;" d="M295.342,210.48c-10.98-6.34-19.881-21.757-19.845-34.374c0.036-12.617,8.995-17.683,19.975-11.343
	c10.98,6.34,19.847,21.696,19.811,34.314C315.247,211.694,306.323,216.819,295.342,210.48z"/>
<path style="fill:#FFFFFF;" d="M381.273,260.092c-10.981-6.339-19.847-21.737-19.811-34.354c0.035-12.617,8.96-17.703,19.94-11.363
	c10.98,6.34,19.846,21.697,19.81,34.314C401.178,261.306,392.253,266.431,381.273,260.092z"/>
<path style="fill:#FFFFFF;" d="M467.238,309.724c-10.98-6.34-19.881-21.757-19.845-34.374c0.036-12.617,8.995-17.683,19.975-11.343
	c10.98,6.34,19.847,21.697,19.811,34.314C487.143,310.938,478.218,316.063,467.238,309.724z"/>
<polygon style="fill:#54428F;" points="1599.622,1246.671 1193.18,1012.012 1193.013,1071.145 1599.454,1305.804 "/>
<polygon style="fill:#54428F;" points="1695.421,1301.981 1643.959,1272.27 1643.792,1331.403 1695.253,1361.113 "/>
<polygon style="fill:#54428F;" points="1599.223,1387.137 1192.782,1152.477 1192.614,1211.61 1599.056,1446.269 "/>
<polygon style="fill:#54428F;" points="1695.021,1442.446 1643.561,1412.735 1643.393,1471.867 1694.855,1501.578 "/>
<polygon style="fill:#54428F;" points="1598.825,1527.601 1192.384,1292.942 1192.215,1352.075 1598.657,1586.734 "/>
<polygon style="fill:#54428F;" points="1694.623,1582.911 1643.163,1553.2 1642.996,1612.332 1694.456,1642.043 "/>
<polygon style="fill:#54428F;" points="1191.818,1492.54 1598.26,1727.199 1598.427,1668.066 1191.985,1433.407 "/>
<polygon style="fill:#54428F;" points="1694.226,1723.376 1642.764,1693.664 1642.597,1752.797 1694.058,1782.508 "/>
<polygon style="fill:#54428F;" points="265.804,378.689 424.669,470.41 424.724,451.125 265.858,359.404 "/>
<polygon style="fill:#54428F;" points="310.555,1174.318 469.386,1266.019 469.441,1246.734 310.61,1155.033 "/>
<path style="fill:#54428F;" d="M542.933,630.314c0.59,0.661,1.18,1.161,1.772,1.502c1.424,0.823,2.748,0.706,3.446-0.41
	c0.979-1.634,0.257-4.731-1.615-6.932L427.76,485.112c-0.555-0.641-1.145-1.142-1.771-1.502l-160.221-92.504
	c-2.12-1.224-3.863-0.27-3.87,2.205c-0.007,2.436,1.725,5.435,3.844,6.659l159.283,91.962L542.933,630.314z"/>
<path style="fill:#54428F;" d="M560.688,1234.764c-0.525-0.303-1.059-0.486-1.572-0.519l-89.096-7.692l-159.352-92.002
	c-2.155-1.244-3.897-0.29-3.905,2.185c-0.007,2.436,1.725,5.435,3.88,6.679l160.185,92.483c0.556,0.321,1.077,0.502,1.599,0.524
	l89.828,7.753c1.948,0.125,2.824-2.008,1.962-4.746C563.557,1237.397,562.158,1235.613,560.688,1234.764z"/>
<path style="fill:#54428F;" d="M939.234,943.103c1.008,0.582,2.017,0.724,2.784,0.247l50.482-30.443l105.98,61.188
	c2.12,1.224,3.863,0.231,3.87-2.205c0.006-2.436-1.725-5.435-3.845-6.659l-107.612-62.13c-1.043-0.602-2.052-0.704-2.784-0.287
	l-51.633,31.138c-1.465,0.954-1.438,3.77,0.087,6.369C937.289,941.58,938.261,942.541,939.234,943.103z"/>
<polygon style="fill:#54428F;" points="1098.595,933.528 992.302,872.16 992.248,891.446 1098.541,952.813 "/>
<polygon style="fill:#B7CAD7;" points="575.218,1344.511 1736.493,2018.68 1736.493,1770.498 1703.155,1939.04 "/>
<polygon style="fill:#FFFFFF;" points="1413.781,911.398 252.507,237.229 252.507,353.064 270.466,304.023 "/>
<path style="fill:#EAB240;" d="M797.823,1297.268l-50.451-78.879l36.063-20.957l-12.798-20.01
	c-18.269-3.192-37.894-10.52-58.325-22.316c-62.336-35.99-116.994-104.82-148.211-179.033l-68.321-24.648l-76.715,44.581
	c39.458,114.285,121.388,224.456,216.318,279.264C697.791,1311.301,754.75,1316.991,797.823,1297.268L797.823,1297.268z"/>
<path style="fill:#BF6D2A;" d="M783.435,1197.431l-12.798-20.01c-18.269-3.192-37.894-10.52-58.325-22.316
	c-62.336-35.99-116.994-104.82-148.211-179.033l-76.715,44.581c31.218,74.213,85.875,143.043,148.212,179.033
	c13.237,7.642,26.135,13.41,38.546,17.392c1.861,0.597,3.712,1.154,5.551,1.672c5.518,1.552,10.932,2.745,16.228,3.587
	c1.177,0.188,2.348,0.357,3.514,0.51c2.914,0.382,5.79,0.656,8.627,0.823c2.837,0.168,5.635,0.229,8.391,0.186
	c0.551-0.009,1.101-0.022,1.648-0.039c2.192-0.068,4.356-0.204,6.492-0.405c1.068-0.101,2.129-0.218,3.182-0.352
	c6.849-0.87,13.394-2.436,19.594-4.673l0,0L783.435,1197.431z"/>
<path style="fill:#E28321;" d="M797.823,1297.268l-50.451-78.879l0,0c-6.199,2.237-12.744,3.803-19.594,4.673
	c-1.054,0.134-2.115,0.251-3.182,0.352c-2.136,0.201-4.3,0.337-6.492,0.405c-0.548,0.017-1.097,0.03-1.648,0.039
	c-2.756,0.043-5.554-0.018-8.391-0.186c-2.837-0.168-5.714-0.441-8.627-0.823c-1.165-0.153-2.336-0.322-3.514-0.51
	c-5.297-0.842-10.71-2.035-16.228-3.587c-1.839-0.517-3.69-1.075-5.551-1.672c-12.411-3.982-25.309-9.75-38.546-17.392
	c-62.337-35.99-116.994-104.82-148.212-179.033l-68.321-24.648c39.458,114.285,121.388,224.456,216.318,279.264
	C697.791,1311.301,754.75,1316.991,797.823,1297.268L797.823,1297.268z"/>
<polygon style="fill:#EAB240;" points="820.288,1255.049 820.288,1255.049 820.288,1255.049 820.288,1255.049 783.435,1197.431 
	747.372,1218.389 797.823,1297.268 797.824,1297.268 874.538,1252.686 860.94,1231.425 820.288,1255.049 "/>
<path style="fill:#F8AB10;" d="M510.225,782.466l-0.803,0.488l-0.398,0.244l-1.173,0.744l-0.349,0.229l-0.845,0.557l-0.427,0.289
	l-0.755,0.518l-0.461,0.322l-0.708,0.505l-0.456,0.33l-0.759,0.562l-0.381,0.285l-0.997,0.766l-0.13,0.101l-1.124,0.896l-0.341,0.28
	l-0.753,0.623l-0.446,0.377l-0.652,0.559l-0.452,0.395l-0.646,0.574l-0.431,0.388l-0.693,0.638l-0.364,0.338l-0.891,0.85
	l-0.16,0.153l-1.028,1.015l-0.317,0.322l-0.697,0.713l-0.392,0.41l-0.624,0.66l-0.399,0.43l-0.604,0.661l-0.392,0.434l-0.664,0.752
	l-0.301,0.345l-0.964,1.13l-0.006,0.008l-0.931,1.129l-0.32,0.398l-0.623,0.783l-0.341,0.438l-0.575,0.746l-0.366,0.484l-0.557,0.75
	l-0.341,0.463l-0.568,0.791l-0.329,0.461l-0.86,1.239l-0.028,0.042l-0.816,1.216l-0.298,0.457l-0.527,0.813l-0.35,0.552
	l-0.482,0.771l-0.341,0.554l-0.499,0.826l-0.297,0.497l-0.545,0.935l-0.251,0.433c-0.257,0.448-0.51,0.9-0.762,1.355l-0.16,0.294
	l-0.598,1.102l-0.262,0.496l-0.477,0.911l-0.29,0.566l-0.444,0.879l-0.286,0.577l-0.449,0.925l-0.253,0.526l-0.53,1.133
	l-0.159,0.341c-0.225,0.492-0.448,0.987-0.669,1.485l-0.181,0.415l-0.477,1.1l-0.244,0.579l-0.4,0.959l-0.247,0.605l-0.385,0.962
	l-0.242,0.617l-0.396,1.029l-0.206,0.541l-0.475,1.289l-0.113,0.308c-0.189,0.524-0.375,1.051-0.559,1.581l-0.201,0.592
	l-0.354,1.047l-0.214,0.655l-0.324,1.001l-0.217,0.687l-0.31,1.004l-0.204,0.672l-0.333,1.13l-0.16,0.547
	c-0.132,0.462-0.262,0.927-0.391,1.393l-0.095,0.339c-0.154,0.562-0.304,1.128-0.452,1.695l-0.15,0.587l-0.294,1.158l-0.173,0.703
	l-0.254,1.057l-0.175,0.747l-0.249,1.094l-0.151,0.678l-0.255,1.188l-0.135,0.637c-0.124,0.599-0.247,1.2-0.365,1.805l76.715-44.582
	c3.202-16.332,8.513-30.569,15.622-42.54c-16.679,0.301-31.816,4.457-44.882,12.165L510.225,782.466z"/>
<path style="fill:#F5D800;" d="M712.43,776.049c-4.408-4.215-8.872-8.322-13.387-12.313c-1.676-1.481-3.36-2.947-5.05-4.395
	c-1.299-1.114-2.601-2.217-3.907-3.31l-0.763-0.637c-0.987-0.823-1.978-1.639-2.97-2.45c-1.202-0.983-2.407-1.961-3.615-2.928
	c-3.899-3.117-7.831-6.146-11.795-9.082c-3.171-2.349-6.363-4.638-9.572-6.865c-1.605-1.113-3.214-2.212-4.828-3.294
	c-1.614-1.082-3.232-2.149-4.856-3.199c-4.869-3.152-9.779-6.159-14.723-9.014c-0.513-0.296-1.027-0.591-1.54-0.883l-0.353-0.2
	l-1.2-0.68l-0.492-0.275l-0.968-0.541l-0.813-0.45l-0.706-0.39l-0.82-0.448l-0.684-0.372l-0.771-0.416l-0.837-0.45l-0.592-0.315
	l-0.911-0.482l-0.697-0.366l-0.75-0.393l-0.752-0.391l-0.843-0.433l-0.661-0.339l-0.788-0.4l-0.727-0.367l-0.87-0.435l-0.601-0.299
	l-0.939-0.463l-0.583-0.286l-0.881-0.428l-0.639-0.309l-0.833-0.398l-0.671-0.32l-0.717-0.338l-1.167-0.546l-1.114-0.516
	l-0.035-0.016c-0.466-0.214-0.932-0.427-1.397-0.638l-0.714-0.321l-0.81-0.363l-0.601-0.266l-0.866-0.382l-0.739-0.322l-0.718-0.312
	l-0.783-0.335l-0.718-0.306l-0.693-0.292l-0.783-0.328l-0.723-0.3l-0.772-0.318l-0.666-0.271l-0.786-0.318l-0.735-0.294
	l-0.693-0.275l-0.787-0.31l-0.69-0.268l-0.724-0.28l-0.85-0.324l-0.602-0.229l-0.803-0.301l-0.682-0.254l-0.865-0.317l-0.562-0.206
	l-0.868-0.312l-0.621-0.223l-0.636-0.224c-0.47-0.165-0.939-0.329-1.407-0.49l-0.804-0.277l-0.651-0.219l-0.796-0.268l-0.696-0.229
	l-0.727-0.24l-0.819-0.264l-0.585-0.188l-0.786-0.248l-0.697-0.219l-0.674-0.208l-0.773-0.237l-0.62-0.188l-0.838-0.25l-0.592-0.175
	l-0.795-0.232l-0.684-0.196l-0.727-0.206l-0.679-0.19L575.046,692l-0.711-0.194l-0.747-0.2l-0.627-0.167l-0.884-0.23l-0.522-0.135
	l-0.838-0.212l-0.594-0.149l-0.946-0.232l-0.433-0.106l-0.894-0.212c-0.483-0.114-0.966-0.226-1.448-0.336l-0.437-0.1l-0.92-0.204
	l-0.448-0.099l-0.756-0.162l-0.674-0.144l-0.591-0.123l-0.798-0.164l-0.652-0.13l-0.708-0.14l-0.686-0.132l-0.686-0.13l-0.693-0.128
	l-0.7-0.127l-0.625-0.111l-0.786-0.137l-0.561-0.095l-0.809-0.134l-0.577-0.093l-0.792-0.125l-0.579-0.089l-0.719-0.108
	l-0.674-0.099l-0.628-0.089l-0.747-0.104l-0.528-0.07l-0.811-0.107l-0.743-0.092l-0.545-0.068l-1.12-0.131l-0.227-0.026l-1.017-0.11
	l-0.904-0.093l-0.754-0.076l-0.67-0.062l-0.616-0.057l-0.785-0.066l-0.55-0.046l-0.715-0.055l-0.604-0.045l-0.701-0.048
	l-0.626-0.042l-0.673-0.041l-0.631-0.037l-0.685-0.036l-0.632-0.031l-0.65-0.029l-0.695-0.028l-0.589-0.022l-0.671-0.022
	l-0.678-0.02l-0.559-0.013l-0.751-0.016l-0.545-0.009l-0.703-0.009l-0.686-0.004l-0.585-0.003l-0.622,0.001l-0.701,0.003
	l-0.409,0.004l-0.852,0.01l-0.298,0.006c-0.598,0.011-1.194,0.025-1.789,0.043l-0.399,0.011l-0.525,0.019l-0.772,0.029l-0.499,0.023
	l-0.739,0.034l-0.577,0.031l-0.672,0.037l-0.673,0.042l-0.549,0.036l-0.682,0.048l-0.573,0.042l-0.64,0.051l-0.622,0.052
	l-0.606,0.053l-0.642,0.06l-0.584,0.057l-0.641,0.065l-0.609,0.065l-0.579,0.065l-0.668,0.077l-0.531,0.064l-0.681,0.085
	l-0.571,0.075l-0.625,0.083l-0.625,0.088l-0.584,0.083l-0.62,0.093l-0.593,0.09l-0.647,0.104l-0.545,0.087l-1.17,0.198l-0.478,0.086
	l-0.727,0.131l-0.555,0.105l-0.602,0.114l-0.602,0.119l-0.609,0.122l-0.548,0.114l-0.605,0.127l-0.654,0.142l-0.487,0.107
	l-0.669,0.152l-0.504,0.116l-0.683,0.161l-0.455,0.11l-0.661,0.163l-0.548,0.138l-0.585,0.15l-0.542,0.142l-0.641,0.171
	l-0.487,0.133l-0.627,0.173l-0.536,0.152l-0.612,0.175l-0.499,0.147l-0.636,0.188l-0.449,0.137l-0.68,0.208l-0.413,0.131
	l-0.702,0.222l-0.19,0.062c-0.532,0.173-1.063,0.349-1.592,0.528l-0.403,0.136l-0.689,0.24l-0.404,0.141l-0.619,0.222l-0.499,0.18
	l-0.594,0.219l-0.496,0.185l-0.591,0.225l-0.497,0.191l-0.58,0.227l-0.519,0.205l-0.566,0.229l-0.495,0.202l-0.578,0.239
	l-0.514,0.216l-0.56,0.238l-0.484,0.209l-0.599,0.262l-0.458,0.204l-0.589,0.264l-0.467,0.213l-0.592,0.272l-0.446,0.21
	l-0.605,0.286l-0.439,0.211l-0.593,0.287l-0.547,0.27l-0.476,0.235l-0.578,0.294l-1.316,0.679l-0.14,0.072l-0.605,0.322
	l-0.418,0.223l-0.553,0.302l-0.468,0.255l-0.523,0.292l-0.485,0.272l-0.542,0.309l-0.455,0.261
	c-38.758,22.432-64.43,67.439-69.808,130.889l68.251,24.647c0.118-0.605,0.24-1.206,0.365-1.805l0.135-0.637l0.255-1.188
	l0.151-0.678l0.249-1.094l0.175-0.747l0.254-1.057l0.173-0.703l0.294-1.158l0.15-0.587c0.148-0.568,0.299-1.133,0.452-1.695
	l0.095-0.339c0.129-0.466,0.258-0.931,0.391-1.393l0.16-0.547l0.333-1.13l0.204-0.672l0.31-1.004l0.217-0.687l0.324-1.001
	l0.214-0.655l0.354-1.047l0.201-0.592c0.184-0.53,0.37-1.057,0.559-1.581l0.113-0.308l0.475-1.289l0.206-0.541l0.396-1.029
	l0.242-0.617l0.385-0.962l0.247-0.605l0.4-0.959l0.244-0.579l0.477-1.1l0.181-0.415c0.221-0.498,0.444-0.993,0.669-1.485
	l0.159-0.341l0.53-1.133l0.253-0.526l0.449-0.925l0.286-0.577l0.444-0.879l0.29-0.566l0.477-0.911l0.262-0.496l0.598-1.102
	l0.16-0.294c0.252-0.455,0.506-0.906,0.762-1.355l0.251-0.433l0.545-0.935l0.297-0.497l0.499-0.826l0.341-0.554l0.482-0.771
	l0.35-0.552l0.527-0.813l0.298-0.457l0.816-1.216l0.028-0.042l0.86-1.239l0.329-0.461l0.568-0.791l0.341-0.463l0.557-0.75
	l0.366-0.484l0.575-0.746l0.341-0.438l0.623-0.783l0.32-0.398l0.931-1.129l0.006-0.008l0.964-1.13l0.301-0.345l0.664-0.752
	l0.392-0.434l0.604-0.661l0.399-0.43l0.624-0.66l0.392-0.41l0.697-0.713l0.317-0.322l1.028-1.015l0.16-0.153l0.891-0.85l0.364-0.338
	l0.693-0.638l0.431-0.388l0.646-0.574l0.452-0.395l0.652-0.559l0.446-0.377l0.753-0.623l0.341-0.28l1.124-0.896l0.13-0.101
	l0.997-0.766l0.381-0.285l0.759-0.562l0.456-0.33l0.708-0.505l0.461-0.322l0.755-0.518l0.427-0.289l0.845-0.557l0.349-0.229
	l1.173-0.744l0.398-0.244l0.803-0.488l0.508-0.301c13.067-7.708,28.203-11.864,44.882-12.165c24.315-0.44,51.905,7.31,81.133,24.184
	c16.887,9.75,33.176,21.914,48.59,35.892L712.43,776.049L712.43,776.049z"/>
<polygon style="fill:#F8AB10;" points="762.052,785.494 789.144,731.468 712.43,776.05 685.338,830.076 "/>
<path style="fill:#A8241B;" d="M815.246,768.975l-76.714,44.582c72.833,90.082,121.78,208.726,121.487,312.258
	c-0.05,17.518-1.513,33.838-4.263,48.893c-0.275,1.505-0.563,2.998-0.864,4.479c-1.653,8.141-3.691,15.898-6.094,23.261
	c-0.437,1.339-0.886,2.664-1.347,3.977c-1.382,3.937-2.871,7.756-4.464,11.456c-0.531,1.233-1.074,2.453-1.628,3.66
	c-0.277,0.603-0.557,1.203-0.84,1.8c-0.848,1.79-1.721,3.549-2.62,5.278c-1.198,2.306-2.441,4.557-3.727,6.754
	c-0.643,1.099-1.297,2.183-1.962,3.255c-0.332,0.535-0.667,1.068-1.005,1.596c-1.351,2.115-2.744,4.175-4.18,6.179
	c-0.359,0.501-0.72,0.999-1.085,1.493c-1.82,2.471-3.705,4.855-5.653,7.152l40.651-23.624l36.063-20.958
	c24.934-29.397,39.572-73.177,39.731-129.234C937.027,977.701,888.081,859.058,815.246,768.975z"/>
<path style="fill:#7B1B16;" d="M918.828,999.516c0,0,13.836,179.249-69.742,227.119l46.177-25.859
	C895.263,1200.775,947.489,1129.443,918.828,999.516z"/>
<path style="fill:#DB513A;" d="M814.377,776.05l-64.115,39.826c0,0,47.082,55.358,67.087,116.765c0,0-20.805-78.126-43.309-112.094
	L814.377,776.05z"/>
<path style="fill:#F8AB10;" d="M757.906,727.984l-45.476,38.639l64.582-37.365c0,0-32.694-32.694-87.467-63.265
	C689.545,665.993,750.303,710.765,757.906,727.984z"/>
<path style="fill:#FFF051;" d="M458.138,848.571l-45.007-32.27c0,0,15.285-114.642,126.53-122.709
	c0,0-112.519-22.928-137.57,131.626L458.138,848.571z"/>
<path style="fill:#A9541F;" d="M759.604,1189.093l-13.563,25.057l30.547-18.682l-9.341-14.861
	c-107.424-13.163-171.114-132.05-171.114-132.05C672.561,1193.345,759.604,1189.093,759.604,1189.093z"/>
<path style="fill:#BF6D2A;" d="M765.123,1283.36c0,0-22.928,16.893-146.062-25.051c0,0,98.598,62.647,166.669,34.817l-43.535-69.254
	L765.123,1283.36z"/>
<path style="fill:#EAB240;" d="M480.642,1024.354l-50.952-17.833c0,0,31.845,89.591,85.769,152.006c0,0-57.703-82.16-69.209-136.542
	C457.184,1024.287,480.642,1024.354,480.642,1024.354z"/>
<path style="fill:#29164E;" d="M1783.736,2028.106l85.344-49.678v-729.885c0,0-17.833,594.862-24.202,666.195
	C1838.991,1980.676,1783.736,2028.106,1783.736,2028.106z"/>
</svg>
